<svg xmlns="http://www.w3.org/2000/svg" fill="none" viewBox="0 0 24 24" id="Mistral-Ai-Icon--Streamline-Svg-Logos" height="24" width="24">
  <desc>
    Mistral Ai Icon Streamline Icon: https://streamlinehq.com
  </desc>
  <path fill="#000000" d="M21.6138 1.3181775H17.341075V5.5909h4.272725V1.3181775Z" stroke-width="0.25"></path>
  <path fill="#f7d046" d="M23.7499 1.3181775H19.477175V5.5909h4.272725V1.3181775Z" stroke-width="0.25"></path>
  <path fill="#000000" d="M4.522725 1.3181775H0.25V5.5909h4.272725V1.3181775Z" stroke-width="0.25"></path>
  <path fill="#000000" d="M4.522725 5.590875H0.25v4.272725h4.272725V5.590875Z" stroke-width="0.25"></path>
  <path fill="#000000" d="M4.522725 9.86365H0.25v4.272725h4.272725V9.86365Z" stroke-width="0.25"></path>
  <path fill="#000000" d="M4.522725 14.136425H0.25v4.272725h4.272725V14.136425Z" stroke-width="0.25"></path>
  <path fill="#000000" d="M4.522725 18.40905H0.25v4.272725h4.272725V18.40905Z" stroke-width="0.25"></path>
  <path fill="#f7d046" d="M6.6592 1.3181775H2.386475V5.5909h4.272725V1.3181775Z" stroke-width="0.25"></path>
  <path fill="#f2a73b" d="M23.7499 5.590875H19.477175v4.272725h4.272725V5.590875Z" stroke-width="0.25"></path>
  <path fill="#f2a73b" d="M6.6592 5.590875H2.386475v4.272725h4.272725V5.590875Z" stroke-width="0.25"></path>
  <path fill="#000000" d="M17.340975 5.590875h-4.27275v4.272725h4.27275V5.590875Z" stroke-width="0.25"></path>
  <path fill="#f2a73b" d="M19.477325 5.590875H15.2046v4.272725h4.272725V5.590875Z" stroke-width="0.25"></path>
  <path fill="#f2a73b" d="M10.931675 5.590875h-4.27275v4.272725h4.27275V5.590875Z" stroke-width="0.25"></path>
  <path fill="#ee792f" d="M15.2045 9.86365H10.931775v4.272725H15.2045V9.86365Z" stroke-width="0.25"></path>
  <path fill="#ee792f" d="M19.477325 9.86365H15.2046v4.272725h4.272725V9.86365Z" stroke-width="0.25"></path>
  <path fill="#ee792f" d="M10.931675 9.86365h-4.27275v4.272725h4.27275V9.86365Z" stroke-width="0.25"></path>
  <path fill="#000000" d="M13.06815 14.136425h-4.27275v4.272725h4.27275V14.136425Z" stroke-width="0.25"></path>
  <path fill="#eb5829" d="M15.2045 14.136425H10.931775v4.272725H15.2045V14.136425Z" stroke-width="0.25"></path>
  <path fill="#ee792f" d="M23.7499 9.86365H19.477175v4.272725h4.272725V9.86365Z" stroke-width="0.25"></path>
  <path fill="#ee792f" d="M6.6592 9.86365H2.386475v4.272725h4.272725V9.86365Z" stroke-width="0.25"></path>
  <path fill="#000000" d="M21.6138 14.136425H17.341075v4.272725h4.272725V14.136425Z" stroke-width="0.25"></path>
  <path fill="#eb5829" d="M23.7499 14.136425H19.477175v4.272725h4.272725V14.136425Z" stroke-width="0.25"></path>
  <path fill="#000000" d="M21.6138 18.40905H17.341075v4.272725h4.272725V18.40905Z" stroke-width="0.25"></path>
  <path fill="#eb5829" d="M6.6592 14.136425H2.386475v4.272725h4.272725V14.136425Z" stroke-width="0.25"></path>
  <path fill="#ea3326" d="M23.7499 18.40905H19.477175v4.272725h4.272725V18.40905Z" stroke-width="0.25"></path>
  <path fill="#ea3326" d="M6.6592 18.40905H2.386475v4.272725h4.272725V18.40905Z" stroke-width="0.25"></path>
</svg>